<svg width="112" height="48" viewBox="0 0 112 48" fill="none" xmlns="http://www.w3.org/2000/svg">
<g clip-path="url(#clip0_8209_115776)">
<path d="M48.1258 0.995337C47.5068 1.40888 47.0553 1.93094 46.6482 2.54739C45.1482 2.57287 43.737 3.00219 42.6716 4.10862C41.6562 5.1631 41.31 6.443 41.3574 7.8764L41.3619 7.9848C41.5507 9.27132 42.0693 10.3254 43.1182 11.119C43.3664 11.3069 43.9186 11.5801 44.4809 11.8583C45.206 12.2171 45.9479 12.5842 46.0764 12.7871C46.5189 13.4195 47.7011 13.7888 48.4337 13.9233C49.5806 14.1337 50.6043 14.0394 51.7081 13.7124C53.2818 16.1522 53.9457 18.7145 54.3107 21.5756L54.1806 21.8177C53.8523 21.5291 53.5817 21.0848 53.3133 20.6439C53.1228 20.3309 52.9332 20.0197 52.7249 19.7672C50.6318 17.2274 47.4511 15.4308 44.0827 15.6204C43.4169 15.6578 41.8827 15.8128 41.3627 16.2577C41.2842 16.8745 41.9589 17.8467 42.3426 18.3378C44.5878 21.212 48.2388 21.9189 51.6359 22.5767C51.9479 22.6371 52.2577 22.6971 52.5642 22.7583C52.5867 22.7628 52.6106 22.7673 52.6356 22.7721C52.8959 22.8215 53.267 22.892 53.3314 23.1437L53.2962 23.2359C49.8277 22.6522 46.206 23.0731 43.2822 25.1691C40.783 26.9607 39.3482 29.7887 38.8638 32.7807C38.2887 36.332 38.8889 40.3063 41.0266 43.263C42.7549 45.6535 45.3076 47.1702 48.2136 47.6296C51.4253 48.1372 54.9151 47.5404 57.5694 45.5969C60.0882 43.7526 61.5142 40.9335 61.9762 37.8912C62.532 34.2297 62.0214 30.3372 59.7794 27.3064C58.8112 25.9975 57.6687 25.107 56.277 24.2865C56.2468 24.2688 56.2164 24.2519 56.1863 24.2352C56.0153 24.1403 55.8552 24.0514 55.8083 23.8371C58.9291 22.7691 62.0159 21.483 64.5005 19.2477C65.7058 18.1633 67.8066 15.6363 67.8927 14.0373C67.7515 13.8109 67.7074 13.7699 67.4472 13.6934C66.9079 13.5343 66.2286 13.5129 65.6617 13.5007C62.6478 13.4356 60.1037 14.8133 58.2311 17.12C58.12 17.2566 57.9545 17.514 57.7701 17.801C57.4106 18.36 56.9791 19.0311 56.738 19.1392C56.7164 19.1488 56.6946 19.1572 56.6727 19.1656C56.661 19.1701 56.6492 19.1746 56.6376 19.1793C56.839 18.3489 57.1057 17.5254 57.3723 16.7024C57.5667 16.1018 57.7612 15.5016 57.9301 14.8993L58.0183 14.8296C60.1455 13.1402 61.6685 10.5972 61.9641 7.87739C62.1846 5.85278 61.706 4.08182 60.4312 2.48818C60.2205 2.59769 60.0121 2.71072 59.8114 2.83655C58.0061 3.9712 57.0335 6.16388 56.599 8.18077C56.1623 10.2063 56.0619 13.1312 57.2254 14.9301C56.4932 17.2318 55.7829 19.5403 55.0937 21.855C54.8114 18.8752 53.9281 15.8849 52.368 13.3274C52.6212 13.0971 52.8561 12.8474 53.07 12.5807C53.9633 11.4802 55.0286 9.36715 54.8808 7.92691C54.718 7.7177 54.5371 6.74012 54.3831 5.90798C54.2963 5.43863 54.218 5.01556 54.1563 4.80271C53.8542 3.7565 53.4461 2.77821 52.9808 1.79552C52.5285 1.10098 51.8568 0.544292 51.031 0.361009C50.0067 0.133724 48.9842 0.422107 48.1258 0.995337ZM49.2024 23.9901C50.6493 23.8473 51.9846 23.991 53.2432 24.783C55.2746 26.0617 56.2583 28.455 56.7688 30.7028C57.6445 34.5641 57.64 40.8387 55.4213 44.2858C54.518 45.689 53.3535 46.3725 51.7572 46.7188C50.2681 46.8789 48.8494 46.7309 47.5729 45.8886C45.476 44.5048 44.5552 41.8756 44.07 39.5204C43.2573 35.5755 43.1464 29.9021 45.4847 26.4072C46.4205 25.0084 47.5852 24.3228 49.2024 23.9901Z" fill="#353C3A"/>
<path d="M46.6481 2.5474C47.0552 1.93094 47.5066 1.40888 48.1257 0.995336C48.984 0.422106 50.0066 0.133726 51.0309 0.36101C51.8567 0.544294 52.5284 1.10098 52.9806 1.79552C51.5659 2.20509 51.0834 2.74888 50.263 3.9657C50.0473 4.55833 49.8625 5.17843 49.8102 5.81022C50.8056 6.68749 51.4452 7.6747 51.5336 9.03345C51.5441 9.19578 51.5562 9.22599 51.4675 9.35755L51.1058 9.25058C50.7834 9.48603 50.7027 9.88723 50.6426 10.2633C50.5354 10.9349 50.5197 11.6591 50.5329 12.3387C49.7024 12.0957 48.9712 12.0113 48.1069 12.0516C47.3956 12.2276 46.7244 12.4328 46.0763 12.7871C45.8481 12.4268 43.6863 11.549 43.1181 11.119C42.0692 10.3254 41.5506 9.27132 41.3618 7.9848L41.3573 7.8764C41.3098 6.443 41.6561 5.1631 42.6716 4.10862C43.737 3.00219 45.1481 2.57287 46.6481 2.5474Z" fill="#EAE9E8"/>
<path d="M46.6481 2.5474C47.0552 1.93094 47.5066 1.40888 48.1257 0.995336C48.984 0.422106 50.0066 0.133726 51.0309 0.36101C51.8567 0.544294 52.5284 1.10098 52.9806 1.79552C51.5659 2.20509 51.0834 2.74888 50.263 3.9657C50.0473 4.55833 49.8625 5.17843 49.8102 5.81022L48.8166 5.40935C48.4202 5.41994 47.6392 5.34032 47.2996 5.51169L46.8617 5.72464C46.6929 5.87815 46.4957 6.10951 46.3016 6.22122L45.9347 6.85478L45.6806 6.87044C44.4995 6.84926 43.3844 6.97807 42.3034 7.48811C41.9979 7.63235 41.6772 7.88908 41.3618 7.9848L41.3573 7.8764C41.3098 6.443 41.6561 5.1631 42.6716 4.10862C43.737 3.00219 45.1481 2.57287 46.6481 2.5474Z" fill="#DB8778"/>
<path d="M48.8164 5.40929C48.9973 4.92473 49.1497 4.32889 49.5232 3.95924C49.8603 3.82293 49.9281 3.8676 50.2628 3.96564C50.0471 4.55827 49.8623 5.17837 49.81 5.81016L48.8164 5.40929Z" fill="#353C3A"/>
<path d="M46.8613 5.72451C46.5043 5.47903 46.0937 5.22847 45.8048 4.90127C45.6174 4.68921 45.5193 4.4584 45.5324 4.17564L45.7202 4.08301C46.5108 4.25637 46.8488 4.90304 47.2992 5.51156L46.8613 5.72451Z" fill="#353C3A"/>
<path d="M45.68 6.87032C45.5313 6.8519 45.3637 6.83867 45.2193 6.7961C44.9781 6.72497 44.9393 6.62506 44.8477 6.41785C44.9505 6.2736 44.9751 6.23379 45.1385 6.162C45.5333 5.98853 45.9143 6.07642 46.301 6.22111L45.9341 6.85466L45.68 6.87032Z" fill="#353C3A"/>
<path d="M47.6503 3.19019C47.7837 3.24786 47.9146 3.31668 47.999 3.44041C48.3373 3.93722 48.2806 4.92895 48.2192 5.50461L47.749 5.365C47.6846 5.29442 47.6346 5.23828 47.5949 5.15017C47.3178 4.5357 47.4323 3.80168 47.6503 3.19019Z" fill="#353C3A"/>
<path d="M45.6807 6.8704L45.9348 6.85474C45.6251 8.02601 45.4581 9.21062 46.1064 10.3111C46.5692 11.0966 47.3198 11.6254 48.1069 12.0515C47.3956 12.2275 46.7245 12.4327 46.0763 12.7871C45.8482 12.4268 43.6864 11.549 43.1181 11.119C42.0693 10.3253 41.5506 9.27127 41.3618 7.98476C41.6772 7.88904 41.9979 7.63231 42.3035 7.48807C43.3844 6.97803 44.4996 6.84922 45.6807 6.8704Z" fill="#EBB19F"/>
<path d="M56.638 19.1793C56.671 19.166 56.7052 19.1541 56.7383 19.1392C57.1033 18.9757 57.904 17.5229 58.2315 17.12C60.104 14.8133 62.6482 13.4356 65.6621 13.5007C66.2289 13.5129 66.9082 13.5343 67.4475 13.6934C67.7077 13.7699 67.7519 13.811 67.893 14.0374C67.807 15.6363 65.7062 18.1633 64.5008 19.2477C62.0163 21.4831 58.9295 22.7691 55.8087 23.8371C57.4298 21.7842 59.3266 19.7698 61.3557 18.1194C62.0615 17.5453 65.0423 15.721 65.2585 15.3457C65.1625 15.2832 65.1493 15.2434 65.0302 15.2607C62.335 15.6527 57.143 21.1899 55.5308 23.2835C55.7348 21.858 56.0855 20.5118 56.638 19.1793Z" fill="#97A898"/>
<path d="M53.2957 23.2359L53.331 23.1437C53.2605 22.8679 52.8215 22.8097 52.5637 22.7583C48.9208 22.0305 44.7937 21.476 42.3422 18.3378C41.9585 17.8467 41.2837 16.8745 41.3623 16.2577C41.8823 15.8128 43.4165 15.6578 44.0823 15.6204C47.4507 15.4308 50.6314 17.2274 52.7245 19.7672C53.2263 20.3753 53.6189 21.3242 54.1802 21.8177L54.3103 21.5756C54.3677 21.9162 54.3908 22.1843 54.3412 22.5302C53.9365 22.4006 53.2968 21.5695 52.9164 21.2683C50.7695 19.5664 47.0037 17.2518 44.1622 17.3334L44.0888 17.4336C44.7966 17.9848 45.9925 18.2038 46.8367 18.4966C49.3834 19.38 52.223 21.0552 53.846 23.2583L53.7589 23.3562C53.6178 23.3241 53.4193 23.3057 53.2957 23.2359Z" fill="#97A898"/>
<path d="M60.4307 2.48804C61.7056 4.08168 62.1842 5.85264 61.9636 7.87725C61.6681 10.5971 60.1451 13.1401 58.0178 14.8294L57.9296 14.8991C58.4215 12.4723 58.7865 9.91421 59.5077 7.55083C59.6654 7.03671 60.0161 6.10838 59.7558 5.61896L59.5739 5.69175C58.4634 7.44937 57.9009 12.6255 57.2249 14.9299C56.0615 13.131 56.1618 10.2061 56.5985 8.18063C57.033 6.16374 58.0057 3.97107 59.811 2.83641C60.0117 2.71058 60.2201 2.59754 60.4307 2.48804Z" fill="#97A898"/>
<path d="M50.2629 3.96559C51.0832 2.74877 51.5657 2.20499 52.9805 1.79541C53.4458 2.7781 53.8539 3.75639 54.156 4.8026C54.327 5.39282 54.6258 7.5996 54.8806 7.9268C53.9763 8.10953 53.3488 8.59597 52.8459 9.36153C52.566 9.78798 52.3469 10.274 52.1444 10.742C51.9205 10.3276 51.558 9.81632 51.4673 9.35745C51.556 9.22588 51.544 9.19567 51.5334 9.03334C51.445 7.67459 50.8054 6.68738 49.8101 5.81011C49.8623 5.17832 50.0472 4.55823 50.2629 3.96559Z" fill="#EBB19F"/>
<path d="M93.4034 23.0444C92.54 23.0187 91.6798 23.0662 90.8197 23.138C88.7299 23.5595 86.2199 24.272 84.9693 26.152C84.3451 27.0902 84.0672 28.249 84.2889 29.3625C84.4522 30.1804 84.89 30.9281 85.5979 31.3877C86.253 31.8126 87.1937 32.0067 87.9601 31.8348C88.5964 31.6922 89.1379 31.2795 89.4809 30.7296C89.8702 30.1053 89.9838 29.3133 89.8161 28.5997C89.7125 28.1594 89.4115 27.8128 89.1191 27.476C88.6333 26.9164 88.1709 26.3838 88.6747 25.493C89.085 24.7688 90.0576 24.3373 90.8296 24.1591C92.0228 23.8836 93.4487 23.9679 94.503 24.6368C95.5341 25.2913 96.1097 26.3666 96.3645 27.5366C96.6788 28.988 96.7527 31.1052 95.9068 32.3726C95.1395 33.5226 93.1873 33.9742 90.9942 34.4815C87.8511 35.2086 84.2129 36.0502 82.8586 39.2264C82.3376 40.4472 82.4936 41.7004 82.611 42.6438C82.6762 43.1683 82.7295 43.597 82.648 43.8711C82.6623 43.89 82.6767 43.9086 82.691 43.9276C82.8606 44.156 82.9978 44.4023 83.1351 44.649C83.2353 44.8289 83.3356 45.009 83.4486 45.1824C84.3904 46.6302 85.6608 47.2594 87.3403 47.5181C89.8746 47.9086 92.6844 47.3523 94.7632 45.8123C95.2595 45.4447 96.177 44.6184 96.2751 43.9806C96.2836 43.9918 96.292 44.0029 96.3001 44.0141L96.3104 44.0289C96.6143 44.4844 96.7227 44.94 96.8245 45.3685C97.0388 46.2697 97.2246 47.0509 99.1401 47.4583C100.577 47.7638 102.803 47.609 104.077 46.7614C104.339 46.5882 104.608 46.3184 104.659 45.9978C104.665 45.9556 104.667 45.9244 104.667 45.8908C104.667 45.8643 104.666 45.8364 104.665 45.8006C104.644 45.7803 104.625 45.7625 104.609 45.7468C104.515 45.6539 104.497 45.6365 104.324 45.641C104.072 45.6475 103.813 45.6938 103.554 45.74C102.896 45.8576 102.239 45.975 101.689 45.4378C100.873 44.641 100.888 42.7965 100.898 41.6132C100.899 41.5218 100.9 41.4343 100.9 41.3516C100.92 38.793 100.926 36.2343 100.918 33.6756C100.908 27.8911 100.723 23.262 93.4034 23.0444ZM96.0203 33.7246L96.3357 33.7149L96.4306 33.847C96.5214 34.5828 96.4954 35.3228 96.4695 36.0625C96.4575 36.4013 96.4456 36.74 96.4449 37.0783C96.4439 37.5245 96.459 37.9789 96.4742 38.4361C96.5107 39.5296 96.5477 40.6406 96.3666 41.6955C96.2652 42.2916 96.0468 42.8621 95.7259 43.3748C95.0201 44.4997 93.8544 45.1993 92.572 45.473C91.0534 45.7971 89.8613 45.4616 88.5843 44.6426C88.5066 44.5046 88.4315 44.3729 88.3592 44.2461C87.6123 42.936 87.1664 42.1538 87.3172 40.4049C87.6012 37.1023 90.8834 35.8751 93.5777 34.8678L93.785 34.7902L93.9295 34.7359C94.0306 34.6979 94.1427 34.6579 94.261 34.6155L94.2627 34.6149C94.8282 34.4129 95.5406 34.1584 95.9278 33.8114C95.9406 33.8001 95.9531 33.7885 95.9654 33.7769C95.9837 33.7595 96.0018 33.7419 96.0203 33.7246Z" fill="#353C3A"/>
<path d="M93.8249 34.7749C93.7918 34.7873 93.7585 34.7998 93.7251 34.8123L93.7841 34.7902L93.8249 34.7749Z" fill="#EAE9E8"/>
<path d="M17.914 10.0015C18.4484 9.94297 19.0286 9.96271 19.5645 10.0155C21.63 10.2025 23.5348 11.2084 24.8538 12.8088C25.7345 13.8961 26.2474 15.2145 26.0868 16.6242C25.9929 17.4492 25.6847 18.2466 25.0153 18.7721C24.2999 19.3338 23.275 19.6122 22.3732 19.5009C21.6138 19.4072 20.951 19.0056 20.488 18.3991C20.0758 17.8593 19.8962 17.0556 19.997 16.3869C20.2184 14.9182 21.7566 14.7831 22.733 14.0431C22.9954 13.8444 23.1055 13.6428 23.1528 13.3207C23.0931 12.9444 22.9398 12.6989 22.6867 12.4262C21.7474 11.4142 20.3174 10.9474 18.9634 10.9135C17.7971 10.8842 16.6425 11.1952 15.7958 12.0318C13.7741 14.029 14.3287 20.3322 14.3347 23.0666C15.6882 23.0793 23.4379 22.8399 24.1363 23.354C24.2049 23.5816 24.1749 23.7135 24.1164 23.941C23.5859 24.3037 15.684 24.1116 14.3269 24.1312L14.3381 31.952C15.0355 31.9534 15.7361 31.9623 16.4328 31.9332C21.3391 31.7282 19.8702 28.1866 21.0494 27.0137C21.1729 26.8908 21.2372 26.9245 21.4077 26.9245C21.7491 27.3774 21.5951 35.8447 21.5949 37.1156C21.5986 37.4139 21.5772 37.7058 21.5527 38.0026L21.342 38.1746C21.069 38.1779 21.002 38.2202 20.7886 38.0379C20.6219 36.6642 20.2281 34.9216 19.2027 33.9362C17.9314 32.7144 15.9592 32.9706 14.338 32.9913C14.3286 35.3252 13.8126 43.8289 15.3083 45.4503C16.1268 46.3377 17.6269 46.2205 18.2034 46.9428L18.1779 47.1007C17.8574 47.2783 17.4638 47.2882 17.1047 47.3031C16.0738 47.3458 6.81209 47.3232 6.30327 47.1686C6.20137 47.1377 6.24063 47.1318 6.1352 47.1453C6.11524 47.1478 6.09594 47.1539 6.07642 47.1582L6.02481 47.0365C6.1642 46.5144 8.28465 46.1016 8.89107 45.4686C10.2203 44.0811 9.739 35.4014 9.72577 33.0089C8.79193 32.994 6.92348 33.3202 6.22221 32.7443C6.09186 32.4897 6.05569 32.4424 6.08513 32.1623C6.60322 31.699 8.97962 31.9204 9.71673 31.9181C9.72864 29.31 9.72687 26.7018 9.71143 24.0936C8.57699 24.1148 7.05636 24.3146 6.02724 23.7716L6 23.4466C6.70744 22.8561 8.79799 23.0731 9.71827 23.0804C9.67713 19.6932 9.7261 15.6594 11.9727 12.8851C13.4597 11.0487 15.6362 10.2392 17.914 10.0015Z" fill="#353C3A"/>
<path d="M34.3388 8.28564L34.466 8.31068C34.6392 8.51337 34.6395 8.62211 34.6528 8.88038C34.7977 11.6869 34.6419 14.5839 34.6408 17.4005L34.6361 35.2194C34.6357 37.3585 34.3287 43.1127 35.0088 44.7917C35.7637 46.6555 37.5271 46.0671 38.0956 46.9427L38.0067 47.1759C37.4919 47.3763 28.6421 47.2682 27.2143 47.3121C27.1013 47.3119 27.1235 47.3242 27.0393 47.2908C26.8227 47.2048 26.8284 47.1193 26.7378 46.9195C26.952 46.1843 28.5252 46.4809 29.1668 45.7671C29.7229 45.1484 29.9396 44.3259 30.0413 43.5213C30.2522 41.8536 30.1875 40.1401 30.1869 38.4619L30.1805 31.3951L30.1755 21.2759C30.1782 19.0294 30.2348 16.7695 30.1268 14.5256C30.008 12.0576 30.0918 11.5973 27.6522 10.8424C27.4058 10.766 27.0555 10.6838 26.8728 10.4911C26.7578 10.3698 26.792 10.3286 26.7893 10.1721L26.8918 10.1851C27.0848 9.96111 27.9707 9.91292 28.2804 9.87355C30.3993 9.60381 32.4189 9.26216 34.3388 8.28564Z" fill="#353C3A"/>
<path d="M70.3198 22.9099L70.6517 22.9517C70.6782 22.9931 70.7212 23.0529 70.7399 23.102C70.9869 23.7463 70.8513 28.0607 70.6021 28.6478C70.9583 28.3381 71.1116 27.9006 71.3233 27.4891C72.0721 26.0346 72.9973 24.7583 74.4916 23.9948C76.0443 23.2014 78.0591 22.7881 79.7431 23.3548C80.6782 23.6694 81.4337 24.3149 81.8626 25.2066C82.3093 26.1368 82.3975 27.2317 82.038 28.2058C81.7446 28.9984 81.1558 29.7054 80.3794 30.0598C79.6438 30.3956 78.8278 30.3667 78.0834 30.0695C77.3313 29.7689 76.6939 29.2318 76.3873 28.4694C75.7962 27.0032 76.5913 26.473 77.049 25.2676C77.1383 25.0343 77.1218 24.9623 77.0192 24.7436C76.7049 24.5922 76.3752 24.6569 76.0498 24.735C71.9078 25.7283 70.9362 30.6236 70.8524 34.2767C70.8315 35.1766 70.8645 38.3307 70.8645 38.3307C70.8645 38.3307 70.8303 41.3624 70.8645 42.2333C70.9472 44.3493 71.0928 45.7842 73.3557 46.463C73.6866 46.5623 74.1078 46.624 74.3604 46.8723C74.4277 46.938 74.3946 47.0578 74.3935 47.1479C74.3681 47.1672 74.3427 47.1877 74.3174 47.2059C74.1773 47.3023 63.638 47.3389 63.0535 47.1924L62.9829 46.9496C63.2266 46.0298 64.9977 46.4903 65.6803 45.6214C66.02 45.1889 66.1512 44.6251 66.2284 44.092C66.6442 41.2311 66.4435 38.1396 66.4368 35.2433C66.4313 32.8438 66.5846 30.2879 66.2582 27.9172C65.8049 24.6185 64.604 26.1672 63.2399 25.1282C63.1208 24.8678 63.1395 24.84 63.2046 24.5569C65.5281 24.117 68.1076 24.0973 70.2437 22.9515L70.3198 22.9099Z" fill="#353C3A"/>
</g>
<defs>
<clipPath id="clip0_8209_115776">
<rect width="98.6667" height="47.5185" fill="white" transform="translate(6 0.283203)"/>
</clipPath>
</defs>
</svg>
